<?xml version="1.0" encoding="utf-8"?>
<!-- Generator: Adobe Illustrator 15.0.0, SVG Export Plug-In . SVG Version: 6.00 Build 0)  -->
<!DOCTYPE svg PUBLIC "-//W3C//DTD SVG 1.1//EN" "http://www.w3.org/Graphics/SVG/1.1/DTD/svg11.dtd">
<svg version="1.1" id="Ebene_1" xmlns="http://www.w3.org/2000/svg" xmlns:xlink="http://www.w3.org/1999/xlink" x="0px" y="0px"
	 width="380.509px" height="107.036px" viewBox="0 0 380.509 107.036" enable-background="new 0 0 380.509 107.036"
	 xml:space="preserve">
<g>
	<path fill="#C7C7C6" d="M122.74,97.423h46.431c20.544,0,30.541-5.615,34.787-19.313c1.371-4.518,1.783-9.859,1.918-20.955v-9.723
		c0.138-4.245,0.138-7.259,0.138-7.259c0-13.97-4.246-23.421-12.738-29.037c-5.067-3.287-13.285-5.068-22.736-5.068h-47.8V97.423z
		 M147.257,76.467V27.299h19.86c8.765,0,12.326,2.737,13.148,9.86c0.411,3.287,0.685,8.355,0.685,13.833c0,1.371,0,3.15-0.138,6.301
		c-0.136,2.602-0.136,3.834-0.274,5.068c-0.273,4.656-0.685,6.436-2.054,8.764c-2.328,3.975-5.068,5.342-11.367,5.342H147.257z
		 M269.946,62.909c0.137,1.231,0.137,2.601,0.137,2.739c0,9.176-3.148,11.504-15.477,11.504c-12.738,0-15.614-3.15-15.614-17.394
		v-6.575c0-5.752,0-5.889,0.139-8.628c0.135-6.163,0.409-9.177,1.095-11.367c1.507-4.932,5.066-6.713,13.972-6.713
		c12.599,0,15.065,1.645,15.201,10.548c0,0.41,0.139,0.957,0.139,1.781h24.242c-0.138-4.385-0.138-5.754-0.274-8.494
		c-0.412-10.272-3.425-16.709-9.45-20.544c-5.615-3.561-10.41-4.382-26.023-4.382c-1.781,0-5.754,0-7.944,0.136
		c-4.108,0-5.888,0.138-8.081,0.412c-8.63,0.959-14.792,3.423-19.723,8.217c-6.162,5.889-8.49,13.833-8.49,28.216v5.066l0.135,5.067
		v5.068c0.139,3.697,0.274,7.943,0.549,10.957c0.959,13.56,5.205,21.504,14.382,26.16c5.477,2.739,10.272,3.426,25.064,3.426
		c12.737,0,17.804-0.275,21.229-1.098c6.848-1.781,12.873-6.025,16.022-11.367c2.33-3.973,3.015-8.629,3.015-19.996v-2.739H269.946z
		 M377.771,34.557c0.137-1.781,0.137-3.561,0.137-4.247c0-9.313-2.603-15.887-7.807-19.858c-5.067-3.835-12.055-5.068-29.175-5.068
		c-17.394,0-25.063,1.369-31.09,5.615c-5.206,3.698-7.534,10.546-7.534,21.64c0,13.149,2.604,19.859,9.178,23.421
		c4.795,2.738,9.725,3.561,24.929,4.655l2.736,0.138l2.879,0.273l2.876,0.137c3.56,0.275,5.614,0.549,6.711,0.823
		c3.425,0.957,4.794,3.149,4.794,7.806c0,4.795-1.508,7.26-5.204,8.491c-1.507,0.55-2.193,0.55-9.863,0.55
		c-9.45,0-10.135-0.139-12.463-1.232c-2.329-1.234-3.424-3.699-3.424-8.219v-1.645h-23.284c0,9.863,0.548,13.971,2.329,18.08
		c4.244,9.586,12.599,12.191,38.349,12.191c17.808,0,25.202-1.646,31.229-6.85c4.794-4.246,6.436-10.271,6.436-23.283
		c0-15.34-3.97-21.094-16.299-24.106c-3.835-0.958-6.984-1.231-15.886-1.917c-14.733-1.028-15.086-1.008-15.432-1.052
		c-0.068-0.009-0.138-0.02-0.318-0.043c-4.247-0.823-5.754-3.014-5.754-7.944c0-7.122,2.876-8.903,14.381-8.903
		c10.957,0,13.285,1.507,13.285,9.039v1.507H377.771z"/>
	<path fill="#FFFFFF" d="M92.142,46.606c0.757,23.55-17.081,38.389-34.205,38.389c-3.678,0-7.207-0.616-10.46-1.772
		c18.014,7.17,33.836-4.748,34.316-5.115C70.795,87.32,58.685,89.795,48.144,87.48c3.113,1.123,6.42,1.729,9.793,1.729
		c37.072,0,55.539-51.879,25.071-79.736c36.455,28.763,14.608,84.172-25.071,84.172c-33.85,0-46.895-35.715-34.363-55.039
		C7.318,60.141,24.928,83.24,24.928,83.24l-0.046-0.045c22.034,24.183,71.355,21.883,80.719-22.021
		c-8.687,58.168-97.938,52.197-97.938-5.992c0-22.313,17.152-38.372,37.152-39.469c-48.346,2.011-60.217,79.346-4.062,91.322
		c-58.167-8.687-52.197-97.936,5.993-97.936c23.123,0,39.309,16.66,39.309,37.58c0,6.441-1.94,13.287-6.214,18.624
		c4.953-5.181,7.88-12.541,7.934-21.312C88.002,6.92,35.895-11.548,8.039,18.92C36.49-16.093,92.211,4.312,92.211,43.991
		C92.211,44.877,92.187,45.748,92.142,46.606 M57.786,47.716l-0.132-0.158l0.029,0.051L57.786,47.716z"/>
	<path d="M57.786,47.716c-6.119-7.38-16.364-4.164-16.364,5.759c0,21.979,37.424,22.526,37.424-9.483
		c0-19.061-12.953-32.571-33.808-34.2c23.628-0.829,38.521,17.044,38.521,34.2c0,18.304-14.363,32.245-35.663,27.692
		c22.254,6.899,39.747-6.134,39.879-27.692C88.002,6.92,35.895-11.548,8.039,18.92C36.49-16.093,92.211,4.312,92.211,43.991
		c0,33.85-33.956,46.894-53.279,34.362c21.532,16.256,42.874-0.256,42.874-0.256c-27.304,22.885-61.464,4.237-61.464-26.161
		c0-15.893,12.908-25.426,26.661-25.426c20.125,0,19.588,17.48,19.588,17.48c0-9.356-8.994-19.944-19.588-19.944
		c-20.186,0-32.764,15.59-32.764,31.135c0,49.951,79.228,62.889,91.362,5.992c-8.687,58.168-97.938,52.197-97.938-5.992
		c0-23.123,18.419-39.528,39.339-39.528c17.204,0,32.822,12.031,32.822,34.6c0,16.666-25.577,14.455-34.163,8.651
		c-0.581-0.375-1.113-0.817-1.585-1.318c-1.177-1.216-1.964-2.712-2.205-4.477c-0.07-0.44-0.106-0.892-0.106-1.351
		c0-4.694,3.805-8.499,8.499-8.499c3.186,0,5.964,1.754,7.419,4.349L57.786,47.716z"/>
	<path fill="#00569E" d="M54.212,59.221c11.328-4.328,7.379-20.761-4.221-20.761c-21.605,0-19.845,41.822,7.946,41.822
		c19.06,0,32.57-12.954,34.2-33.809c0.828,23.628-17.044,38.522-34.2,38.522c-18.304,0-32.905-15.243-28.353-36.543
		c-6.898,22.253,9.712,40.757,28.353,40.757c37.071,0,55.539-51.879,25.07-79.734c36.456,28.762,14.608,84.172-25.07,84.172
		c-33.85,0-46.895-35.715-34.364-55.038c-16.256,21.532,1.355,44.633,1.355,44.633C18.087,76,14.251,65.836,14.046,57.352
		c-0.461-19.165,14.875-35.575,35.945-35.575c15.893,0,25.426,12.908,25.426,26.662c0,20.124-17.48,19.587-17.48,19.587
		c9.355,0,18.326-9.021,19.064-19.587c1.404-20.118-14.71-32.765-30.255-32.765c-49.952,0-62.888,79.227-5.993,91.363
		C-17.416,98.35-11.444,9.1,46.746,9.1c23.123,0,39.308,16.66,39.308,37.58c0,13.263-8.226,28.241-28.117,28.241
		c-16.667,0-20.717-19.236-14.915-27.823c0.375-0.581,0.819-1.114,1.32-1.585c1.216-1.178,2.712-1.964,4.477-2.205
		c0.439-0.071,0.89-0.107,1.35-0.107c4.693,0,8.499,3.805,8.499,8.499c0,3.188-1.754,5.963-4.35,7.419L54.212,59.221z"/>
	<path fill="#FFFFFF" d="M18.901,51.58c0-18.532,15.023-33.554,33.555-33.554c18.531,0,33.554,15.022,33.554,33.554
		c0,18.532-15.023,33.555-33.554,33.555C33.924,85.135,18.901,70.112,18.901,51.58"/>
	<path fill="#FFFFFF" d="M13.175,59.813l-5.669,0.001V12.3c0,0,0-5.669,5.669-5.669h24.091v47.514c0,0,0,5.669-5.67,5.669H13.175z"
		/>
	<path fill="#FFFFFF" d="M74.732,97.947c0,0-0.839,0.063-5.669-0.001V50.434c0,0,0-5.669,5.669-5.669h18.421
		c0,0,0.969,0.02,5.67,0.001v47.513c0,0,0,5.669-5.67,5.669H74.732z"/>
	<path fill="#FFFFFF" d="M7.506,73.857v-5.67H55.02c0,0,5.669,0,5.669,5.67v18.42c0,0,0.001,3.242,0.001,5.67H13.175
		c0,0-5.669,0-5.669-5.67V73.857z"/>
	<path fill="#FFFFFF" d="M45.64,12.3c0,0-0.144-2.896,0-5.668h47.514c0,0,5.669,0,5.669,5.668c0,0,0.086,21.028,0.001,24.09H51.309
		c0,0-5.669,0-5.669-5.669V12.3z"/>
	<path fill="#B9C5E4" d="M12.467,59.105H6.797V11.591c0,0,0-5.669,5.669-5.669h24.091v47.513c0,0,0,5.67-5.67,5.67H12.467z"/>
	<g>
		<defs>
			<path id="SVGID_1_" d="M6.797,11.592v47.515l5.669-0.001h18.423c5.669,0,5.669-5.67,5.669-5.67V5.923L12.466,5.922
				C6.797,5.922,6.797,11.592,6.797,11.592"/>
		</defs>
		<clipPath id="SVGID_2_">
			<use xlink:href="#SVGID_1_"  overflow="visible"/>
		</clipPath>
		<path clip-path="url(#SVGID_2_)" fill="#5F7BA8" d="M60.031,47.778c-6.119-7.38-16.364-4.164-16.364,5.76
			c0,21.978,37.424,22.524,37.424-9.485c0-19.061-12.953-32.57-33.808-34.2c23.628-0.829,38.521,17.044,38.521,34.2
			c0,18.302-14.363,32.244-35.663,27.693c22.254,6.898,39.746-6.135,39.879-27.693c0.227-37.07-51.88-55.539-79.736-25.071
			C38.735-16.031,94.456,4.374,94.456,44.053c0,33.849-33.956,46.894-53.279,34.364c21.532,16.255,42.874-0.256,42.874-0.256
			c-27.304,22.884-61.465,4.235-61.465-26.162c0-15.893,12.908-25.426,26.662-25.426c20.124,0,19.587,17.48,19.587,17.48
			c0-9.355-8.994-19.944-19.587-19.944c-20.187,0-32.765,15.59-32.765,31.135c0,49.951,79.228,62.888,91.361,5.992
			c-8.686,58.168-97.937,52.197-97.937-5.992c0-23.123,18.419-39.529,39.34-39.529c17.203,0,32.821,12.031,32.821,34.6
			c0,16.666-25.577,14.455-34.163,8.652c-0.581-0.375-1.113-0.818-1.585-1.318c-1.177-1.217-1.964-2.713-2.205-4.479
			c-0.07-0.439-0.107-0.889-0.107-1.349c0-4.693,3.806-8.499,8.5-8.499c3.187,0,5.964,1.754,7.418,4.349L60.031,47.778z"/>
		<path clip-path="url(#SVGID_2_)" fill="#89A1CF" d="M56.458,59.283c11.328-4.328,7.379-20.761-4.221-20.761
			c-21.605,0-19.845,41.822,7.946,41.822c19.059,0,32.57-12.954,34.2-33.809c0.828,23.626-17.044,38.522-34.2,38.522
			c-18.304,0-32.905-15.243-28.353-36.543c-6.898,22.253,9.712,40.757,28.353,40.757c37.071,0,55.539-51.879,25.071-79.734
			c36.455,28.762,14.607,84.172-25.071,84.172c-33.85,0-46.895-35.715-34.364-55.038c-16.256,21.532,1.355,44.633,1.355,44.633
			c-6.842-7.241-10.677-17.405-10.882-25.89C15.831,38.25,31.167,21.839,52.236,21.839c15.893,0,25.426,12.908,25.426,26.661
			c0,20.125-17.48,19.588-17.48,19.588c9.355,0,18.326-9.021,19.064-19.588c1.404-20.117-14.71-32.764-30.255-32.764
			c-49.952,0-62.889,79.227-5.993,91.363C-15.169,98.412-9.199,9.162,48.991,9.162c23.123,0,39.308,16.66,39.308,37.58
			c0,13.262-8.226,28.24-28.117,28.24c-16.667,0-20.717-19.237-14.915-27.822c0.375-0.581,0.819-1.114,1.32-1.586
			c1.216-1.177,2.713-1.964,4.477-2.205c0.439-0.07,0.89-0.106,1.349-0.106c4.694,0,8.5,3.805,8.5,8.499
			c0,3.186-1.754,5.963-4.35,7.419L56.458,59.283z"/>
	</g>
	<path fill="#DDE2F2" d="M44.932,11.591V5.922h47.514c0,0,5.669,0,5.669,5.669l0.001,24.09H50.601c0,0-5.669,0-5.669-5.669V11.591z"
		/>
	<g>
		<defs>
			<path id="SVGID_3_" d="M44.932,5.922v5.67v18.421c0,5.669,5.669,5.669,5.669,5.669h47.515l-0.001-24.09
				c0-5.67-5.669-5.67-5.669-5.67H44.932z"/>
		</defs>
		<clipPath id="SVGID_4_">
			<use xlink:href="#SVGID_3_"  overflow="visible"/>
		</clipPath>
		<path clip-path="url(#SVGID_4_)" fill="#8A9ABA" d="M60.031,47.778c-6.119-7.38-16.364-4.164-16.364,5.76
			c0,21.978,37.424,22.524,37.424-9.485c0-19.061-12.953-32.57-33.808-34.2c23.628-0.829,38.521,17.044,38.521,34.2
			c0,18.302-14.363,32.244-35.663,27.693c22.254,6.898,39.746-6.135,39.879-27.693c0.227-37.07-51.88-55.539-79.736-25.071
			C38.735-16.031,94.456,4.374,94.456,44.053c0,33.849-33.956,46.894-53.279,34.364c21.532,16.255,42.874-0.256,42.874-0.256
			c-27.304,22.884-61.465,4.235-61.465-26.162c0-15.893,12.908-25.426,26.662-25.426c20.124,0,19.587,17.48,19.587,17.48
			c0-9.355-8.994-19.944-19.587-19.944c-20.187,0-32.765,15.59-32.765,31.135c0,49.951,79.228,62.888,91.361,5.992
			c-8.686,58.168-97.937,52.197-97.937-5.992c0-23.123,18.419-39.529,39.34-39.529c17.203,0,32.821,12.031,32.821,34.6
			c0,16.666-25.577,14.455-34.163,8.652c-0.581-0.375-1.113-0.818-1.585-1.318c-1.177-1.217-1.964-2.713-2.205-4.479
			c-0.07-0.439-0.107-0.889-0.107-1.349c0-4.693,3.806-8.499,8.5-8.499c3.187,0,5.964,1.754,7.418,4.349L60.031,47.778z"/>
		<path clip-path="url(#SVGID_4_)" fill="#C5CFE8" d="M56.458,59.283c11.328-4.328,7.379-20.761-4.221-20.761
			c-21.605,0-19.845,41.822,7.946,41.822c19.059,0,32.57-12.954,34.2-33.809c0.828,23.626-17.044,38.522-34.2,38.522
			c-18.304,0-32.905-15.243-28.353-36.543c-6.898,22.253,9.712,40.757,28.353,40.757c37.071,0,55.539-51.879,25.071-79.734
			c36.455,28.762,14.607,84.172-25.071,84.172c-33.85,0-46.895-35.715-34.364-55.038c-16.256,21.532,1.355,44.633,1.355,44.633
			c-6.842-7.241-10.677-17.405-10.882-25.89C15.831,38.25,31.167,21.839,52.236,21.839c15.893,0,25.426,12.908,25.426,26.661
			c0,20.125-17.48,19.588-17.48,19.588c9.355,0,18.326-9.021,19.064-19.588c1.404-20.117-14.71-32.764-30.255-32.764
			c-49.952,0-62.889,79.227-5.993,91.363C-15.169,98.412-9.199,9.162,48.991,9.162c23.123,0,39.308,16.66,39.308,37.58
			c0,13.262-8.226,28.24-28.117,28.24c-16.667,0-20.717-19.237-14.915-27.822c0.375-0.581,0.819-1.114,1.32-1.586
			c1.216-1.177,2.713-1.964,4.477-2.205c0.439-0.07,0.89-0.106,1.349-0.106c4.694,0,8.5,3.805,8.5,8.499
			c0,3.186-1.754,5.963-4.35,7.419L56.458,59.283z"/>
	</g>
	<path fill="#94A9D4" d="M6.797,73.148v-5.669h47.514c0,0,5.669,0,5.669,5.669v18.421l0.001,5.67H12.466c0,0-5.669,0-5.669-5.67
		V73.148z"/>
	<g>
		<defs>
			<path id="SVGID_5_" d="M6.798,67.479l-0.001,5.669v18.421c0,5.67,5.669,5.67,5.669,5.67H59.98v-5.67V73.148
				c0-5.669-5.67-5.669-5.67-5.669H6.798z"/>
		</defs>
		<clipPath id="SVGID_6_">
			<use xlink:href="#SVGID_5_"  overflow="visible"/>
		</clipPath>
		<path clip-path="url(#SVGID_6_)" fill="#254F7C" d="M60.031,47.778c-6.119-7.38-16.364-4.164-16.364,5.76
			c0,21.978,37.424,22.524,37.424-9.485c0-19.061-12.953-32.57-33.808-34.2c23.628-0.829,38.521,17.044,38.521,34.2
			c0,18.302-14.363,32.244-35.663,27.693c22.254,6.898,39.746-6.135,39.879-27.693c0.227-37.07-51.88-55.539-79.736-25.071
			C38.735-16.031,94.456,4.374,94.456,44.053c0,33.849-33.956,46.894-53.279,34.364c21.532,16.255,42.874-0.256,42.874-0.256
			c-27.304,22.884-61.465,4.235-61.465-26.162c0-15.893,12.908-25.426,26.662-25.426c20.124,0,19.587,17.48,19.587,17.48
			c0-9.355-8.994-19.944-19.587-19.944c-20.187,0-32.765,15.59-32.765,31.135c0,49.951,79.228,62.888,91.361,5.992
			c-8.686,58.168-97.937,52.197-97.937-5.992c0-23.123,18.419-39.529,39.34-39.529c17.203,0,32.821,12.031,32.821,34.6
			c0,16.666-25.577,14.455-34.163,8.652c-0.581-0.375-1.113-0.818-1.585-1.318c-1.177-1.217-1.964-2.713-2.205-4.479
			c-0.07-0.439-0.107-0.889-0.107-1.349c0-4.693,3.806-8.499,8.5-8.499c3.187,0,5.964,1.754,7.418,4.349L60.031,47.778z"/>
		<path clip-path="url(#SVGID_6_)" fill="#4477B6" d="M56.458,59.283c11.328-4.328,7.379-20.761-4.221-20.761
			c-21.605,0-19.845,41.822,7.946,41.822c19.059,0,32.57-12.954,34.2-33.809c0.828,23.626-17.044,38.522-34.2,38.522
			c-18.304,0-32.905-15.243-28.353-36.543c-6.898,22.253,9.712,40.757,28.353,40.757c37.071,0,55.539-51.879,25.071-79.734
			c36.455,28.762,14.607,84.172-25.071,84.172c-33.85,0-46.895-35.715-34.364-55.038c-16.256,21.532,1.355,44.633,1.355,44.633
			c-6.842-7.241-10.677-17.405-10.882-25.89C15.831,38.25,31.167,21.839,52.236,21.839c15.893,0,25.426,12.908,25.426,26.661
			c0,20.125-17.48,19.588-17.48,19.588c9.355,0,18.326-9.021,19.064-19.588c1.404-20.117-14.71-32.764-30.255-32.764
			c-49.952,0-62.889,79.227-5.993,91.363C-15.169,98.412-9.199,9.162,48.991,9.162c23.123,0,39.308,16.66,39.308,37.58
			c0,13.262-8.226,28.24-28.117,28.24c-16.667,0-20.717-19.237-14.915-27.822c0.375-0.581,0.819-1.114,1.32-1.586
			c1.216-1.177,2.713-1.964,4.477-2.205c0.439-0.07,0.89-0.106,1.349-0.106c4.694,0,8.5,3.805,8.5,8.499
			c0,3.186-1.754,5.963-4.35,7.419L56.458,59.283z"/>
	</g>
	<path fill="#6E8FC5" d="M74.024,97.238l-5.669-0.001V49.725c0,0,0-5.669,5.669-5.669h18.421l5.67,0.001v47.513
		c0,0,0,5.669-5.67,5.669h-24.09"/>
	<g>
		<defs>
			<path id="SVGID_7_" d="M74.024,44.056c-5.669,0-5.669,5.669-5.669,5.669v47.513l5.669,0.002h-5.67h24.091
				c5.669,0,5.669-5.67,5.669-5.67V44.057l-5.669-0.001H74.024z"/>
		</defs>
		<clipPath id="SVGID_8_">
			<use xlink:href="#SVGID_7_"  overflow="visible"/>
		</clipPath>
		<path clip-path="url(#SVGID_8_)" d="M60.031,47.778c-6.119-7.38-16.364-4.164-16.364,5.76c0,21.978,37.424,22.524,37.424-9.485
			c0-19.061-12.953-32.57-33.808-34.2c23.628-0.829,38.521,17.044,38.521,34.2c0,18.302-14.363,32.244-35.663,27.693
			c22.254,6.898,39.746-6.135,39.879-27.693c0.227-37.07-51.88-55.539-79.736-25.071C38.735-16.031,94.456,4.374,94.456,44.053
			c0,33.849-33.956,46.894-53.279,34.364c21.532,16.255,42.874-0.256,42.874-0.256c-27.304,22.884-61.465,4.235-61.465-26.162
			c0-15.893,12.908-25.426,26.662-25.426c20.124,0,19.587,17.48,19.587,17.48c0-9.355-8.994-19.944-19.587-19.944
			c-20.187,0-32.765,15.59-32.765,31.135c0,49.951,79.228,62.888,91.361,5.992c-8.686,58.168-97.937,52.197-97.937-5.992
			c0-23.123,18.419-39.529,39.34-39.529c17.203,0,32.821,12.031,32.821,34.6c0,16.666-25.577,14.455-34.163,8.652
			c-0.581-0.375-1.113-0.818-1.585-1.318c-1.177-1.217-1.964-2.713-2.205-4.479c-0.07-0.439-0.107-0.889-0.107-1.349
			c0-4.693,3.806-8.499,8.5-8.499c3.187,0,5.964,1.754,7.418,4.349L60.031,47.778z"/>
		<path clip-path="url(#SVGID_8_)" fill="#00569E" d="M56.458,59.283c11.328-4.328,7.379-20.761-4.221-20.761
			c-21.605,0-19.845,41.822,7.946,41.822c19.059,0,32.57-12.954,34.2-33.809c0.828,23.626-17.044,38.522-34.2,38.522
			c-18.304,0-32.905-15.243-28.353-36.543c-6.898,22.253,9.712,40.757,28.353,40.757c37.071,0,55.539-51.879,25.071-79.734
			c36.455,28.762,14.607,84.172-25.071,84.172c-33.85,0-46.895-35.715-34.364-55.038c-16.256,21.532,1.355,44.633,1.355,44.633
			c-6.842-7.241-10.677-17.405-10.882-25.89C15.831,38.25,31.167,21.839,52.236,21.839c15.893,0,25.426,12.908,25.426,26.661
			c0,20.125-17.48,19.588-17.48,19.588c9.355,0,18.326-9.021,19.064-19.588c1.404-20.117-14.71-32.764-30.255-32.764
			c-49.952,0-62.889,79.227-5.993,91.363C-15.169,98.412-9.199,9.162,48.991,9.162c23.123,0,39.308,16.66,39.308,37.58
			c0,13.262-8.226,28.24-28.117,28.24c-16.667,0-20.717-19.237-14.915-27.822c0.375-0.581,0.819-1.114,1.32-1.586
			c1.216-1.177,2.713-1.964,4.477-2.205c0.439-0.07,0.89-0.106,1.349-0.106c4.694,0,8.5,3.805,8.5,8.499
			c0,3.186-1.754,5.963-4.35,7.419L56.458,59.283z"/>
	</g>
</g>
</svg>
